<svg viewBox="0 0 12 12" stroke="black" fill="none" stroke-width=".5" xmlns="http://www.w3.org/2000/svg">
<path d="M4.69175 1.54395L5.12442 2.31924C5.51489 3.01889 5.35814 3.93672 4.74316 4.5517C4.74316 4.5517 4.74316 4.5517 4.74316 4.55171C4.74308 4.55178 3.99727 5.29774 5.3497 6.65016C6.70168 8.00214 7.44761 7.25724 7.44815 7.2567C7.44817 7.25668 7.44816 7.25669 7.44818 7.25667C8.06316 6.64171 8.98097 6.48497 9.68062 6.87543L10.4559 7.30811C11.5124 7.89772 11.6372 9.37933 10.7085 10.308C10.1505 10.866 9.46695 11.3002 8.7113 11.3288C7.4392 11.377 5.27887 11.0551 3.11182 8.88804C0.944772 6.72098 0.62283 4.56065 0.671055 3.28856C0.699702 2.5329 1.13389 1.84933 1.69189 1.29132C2.62052 0.362692 4.10214 0.487462 4.69175 1.54395Z" stroke-linecap="round"/>
</svg>