<svg viewBox="0 0 18 19" fill="black">
  <path d="M9 9.5C9.89511 9.5 10.7536 9.14442 11.3865 8.51149C12.0194 7.87855 12.375 7.02011 12.375 6.125C12.375 5.22989 12.0194 4.37145 11.3865 3.73851C10.7536 3.10558 9.89511 2.75 9 2.75C8.10489 2.75 7.24645 3.10558 6.61351 3.73851C5.98058 4.37145 5.625 5.22989 5.625 6.125C5.625 7.02011 5.98058 7.87855 6.61351 8.51149C7.24645 9.14442 8.10489 9.5 9 9.5ZM9 10.625C7.80653 10.625 6.66193 10.1509 5.81802 9.30698C4.97411 8.46307 4.5 7.31847 4.5 6.125C4.5 4.93153 4.97411 3.78693 5.81802 2.94302C6.66193 2.09911 7.80653 1.625 9 1.625C10.1935 1.625 11.3381 2.09911 12.182 2.94302C13.0259 3.78693 13.5 4.93153 13.5 6.125C13.5 7.31847 13.0259 8.46307 12.182 9.30698C11.3381 10.1509 10.1935 10.625 9 10.625Z" />
  <path d="M9 9.5C9.14918 9.5 9.29226 9.55926 9.39775 9.66475C9.50324 9.77024 9.5625 9.91332 9.5625 10.0625V14.5625C9.5625 14.7117 9.50324 14.8548 9.39775 14.9602C9.29226 15.0657 9.14918 15.125 9 15.125C8.85082 15.125 8.70774 15.0657 8.60225 14.9602C8.49676 14.8548 8.4375 14.7117 8.4375 14.5625V10.0625C8.4375 9.91332 8.49676 9.77024 8.60225 9.66475C8.70774 9.55926 8.85082 9.5 9 9.5Z" />
  <path d="M6.75 11.9097V13.0516C4.74187 13.3734 3.375 14.0686 3.375 14.5625C3.375 15.2251 5.83425 16.25 9 16.25C12.1657 16.25 14.625 15.2251 14.625 14.5625C14.625 14.0675 13.2581 13.3734 11.25 13.0516V11.9097C13.8713 12.2956 15.75 13.3385 15.75 14.5625C15.75 16.115 12.7282 17.375 9 17.375C5.27175 17.375 2.25 16.115 2.25 14.5625C2.25 13.3374 4.12875 12.2956 6.75 11.9097Z" />
</svg>