<svg viewBox="0 0 12 12" stroke="black" fill="none" xmlns="http://www.w3.org/2000/svg">
<path d="M5.33348 6.66667V4C5.33348 3.63333 5.03348 3.33333 4.66681 3.33333H2.00014V2H4.66681C5.03348 2 5.33348 1.7 5.33348 1.33333C5.33348 0.966667 5.03348 0.666667 4.66681 0.666667H3.66681C3.66681 0.3 3.36681 0 3.00014 0C2.63348 0 2.33348 0.3 2.33348 0.666667H1.33348C0.966809 0.666667 0.666809 0.966667 0.666809 1.33333V4C0.666809 4.36667 0.966809 4.66667 1.33348 4.66667H4.00014V6H1.33348C0.966809 6 0.666809 6.3 0.666809 6.66667C0.666809 7.03333 0.966809 7.33333 1.33348 7.33333H2.33348C2.33348 7.7 2.63348 8 3.00014 8C3.36681 8 3.66681 7.7 3.66681 7.33333H4.66681C5.03348 7.33333 5.33348 7.03333 5.33348 6.66667ZM10.5868 6.81333L7.28681 10.1133L5.87348 8.7C5.74882 8.57535 5.57976 8.50532 5.40348 8.50532C5.22719 8.50532 5.05813 8.57535 4.93348 8.7C4.80882 8.82465 4.7388 8.99372 4.7388 9.17C4.7388 9.34628 4.80882 9.51535 4.93348 9.64L6.82014 11.5267C7.08014 11.7867 7.50014 11.7867 7.76014 11.5267L11.5335 7.75333C11.5953 7.69166 11.6443 7.6184 11.6778 7.53775C11.7112 7.4571 11.7284 7.37065 11.7284 7.28333C11.7284 7.19602 11.7112 7.10957 11.6778 7.02892C11.6443 6.94827 11.5953 6.87501 11.5335 6.81333C11.2668 6.55333 10.8468 6.55333 10.5868 6.81333Z"/>
</svg>