<svg viewBox="0 0 16 16" stroke="black" fill="none" xmlns="http://www.w3.org/2000/svg">
<g opacity="0.3" clip-path="url(#clip0_84_1197)">
<path d="M5.33337 8H5.33937M7.99404 8H8.00004M10.6607 8H10.6667" stroke-width="1.33333" stroke-linecap="round" stroke-linejoin="round"/>
<path d="M7.99996 14.6668C11.6819 14.6668 14.6666 11.6821 14.6666 8.00016C14.6666 4.31826 11.6819 1.3335 7.99996 1.3335C4.31806 1.3335 1.33329 4.31826 1.33329 8.00016C1.33329 9.06662 1.5837 10.0746 2.02893 10.9685C2.14725 11.206 2.18663 11.4775 2.11804 11.7339L1.72097 13.2179C1.5486 13.8622 2.13797 14.4515 2.78219 14.2792L4.26622 13.8821C4.52258 13.8135 4.7941 13.8529 5.03165 13.9712C5.92554 14.4164 6.93351 14.6668 7.99996 14.6668Z"/>
</g>
<defs>
<clipPath id="clip0_84_1197">
<rect width="16" height="16" fill="white"/>
</clipPath>
</defs>
</svg>