<svg viewBox="0 0 16 12" stroke="black" fill="none" xmlns="http://www.w3.org/2000/svg">
<path d="M6.00462 9.33333C6.00462 9.68696 5.86414 10.0261 5.61409 10.2761C5.36405 10.5262 5.02491 10.6667 4.67128 10.6667C4.31766 10.6667 3.97852 10.5262 3.72848 10.2761C3.47843 10.0261 3.33795 9.68696 3.33795 9.33333C3.33795 8.97971 3.47843 8.64057 3.72848 8.39052C3.97852 8.14048 4.31766 8 4.67128 8C5.02491 8 5.36405 8.14048 5.61409 8.39052C5.86414 8.64057 6.00462 8.97971 6.00462 9.33333ZM12.6713 9.33333C12.6713 9.68696 12.5308 10.0261 12.2808 10.2761C12.0307 10.5262 11.6916 10.6667 11.338 10.6667C10.9843 10.6667 10.6452 10.5262 10.3951 10.2761C10.1451 10.0261 10.0046 9.68696 10.0046 9.33333C10.0046 8.97971 10.1451 8.64057 10.3951 8.39052C10.6452 8.14048 10.9843 8 11.338 8C11.6916 8 12.0307 8.14048 12.2808 8.39052C12.5308 8.64057 12.6713 8.97971 12.6713 9.33333Z" stroke-linecap="round" stroke-linejoin="round"/>
<path d="M1.33797 4.66683H12.0046M1.33797 4.66683C1.33797 5.18683 1.32464 6.6935 1.34064 8.1735C1.36464 8.6535 1.44464 9.0535 3.33931 9.3335M1.33797 4.66683C1.48197 3.50683 2.10797 2.1335 2.42797 1.6135M6.00464 4.66683V1.3335M9.99797 9.3335H6.0013M1.34797 1.3335H8.15997C8.15997 1.3335 8.51997 1.3335 8.83997 1.3655C9.43931 1.4215 9.94264 1.6935 10.4466 2.3735C10.98 3.0935 11.3893 4.0055 11.9333 4.4935C12.8366 5.30416 14.5553 5.0535 14.6513 6.7735C14.6753 7.6535 14.6753 8.6135 14.6353 8.7735C14.5706 9.24483 14.2073 9.3215 13.7553 9.3335C13.3633 9.34416 12.8906 9.31483 12.6606 9.3335" stroke-linecap="round" stroke-linejoin="round"/>
</svg>