<svg viewBox="0 0 20 20" fill="black"><path d="M18.0703 6.60938C17.6289 5.56055 16.9961 4.61914 16.1894 3.81055C15.3828 3.00391 14.4414 2.36914 13.3906 1.92969C12.3164 1.47852 11.1758 1.25 9.99999 1.25H9.96093C8.77733 1.25586 7.63085 1.49023 6.55272 1.95117C5.51171 2.39648 4.57811 3.0293 3.77929 3.83594C2.98046 4.64258 2.3535 5.58008 1.91991 6.625C1.47069 7.70703 1.24413 8.85742 1.24999 10.041C1.25585 11.3965 1.58007 12.7422 2.18749 13.9453V16.9141C2.18749 17.4102 2.58983 17.8125 3.08593 17.8125H6.05663C7.25975 18.4199 8.60546 18.7441 9.96093 18.75H10.0019C11.1719 18.75 12.3066 18.5234 13.375 18.0801C14.4199 17.6445 15.3594 17.0195 16.1641 16.2207C16.9707 15.4219 17.6055 14.4883 18.0488 13.4473C18.5098 12.3691 18.7441 11.2227 18.75 10.0391C18.7558 8.84961 18.5254 7.69531 18.0703 6.60938ZM15.1191 15.1641C13.75 16.5195 11.9336 17.2656 9.99999 17.2656H9.96679C8.78905 17.2598 7.61913 16.9668 6.58593 16.416L6.42186 16.3281H3.67186V13.5781L3.58397 13.4141C3.03319 12.3809 2.74022 11.2109 2.73436 10.0332C2.72655 8.08594 3.47069 6.25781 4.83593 4.88086C6.19921 3.50391 8.02147 2.74219 9.96874 2.73438H10.0019C10.9785 2.73438 11.9258 2.92383 12.8183 3.29883C13.6894 3.66406 14.4707 4.18945 15.1426 4.86133C15.8125 5.53125 16.3398 6.31445 16.7051 7.18555C17.084 8.08789 17.2734 9.04492 17.2695 10.0332C17.2578 11.9785 16.4941 13.8008 15.1191 15.1641Z"/></svg>