<?xml version="1.0" encoding="utf-8"?>
<!-- Generator: Adobe Illustrator 23.0.0, SVG Export Plug-In . SVG Version: 6.00 Build 0)  -->
<svg version="1.1" id="Capa_1" xmlns="http://www.w3.org/2000/svg" xmlns:xlink="http://www.w3.org/1999/xlink" x="0px" y="0px"
	 viewBox="0 0 512 341.3" style="enable-background:new 0 0 512 341.3;" xml:space="preserve">
<style type="text/css">
	.st0{fill:#D80027;}
	.st1{fill:#FFDA44;}
</style>
<polygon class="st0" points="0,0 0,170.7 0,341.3 512,341.3 512,170.7 512,0 "/>
<path class="st1" d="M352,141.1h-73.3L256,71.4l-22.7,69.7H160l59.3,43.1L196.7,254l59.3-43.1l59.3,43.1l-22.7-69.7L352,141.1z
	 M235.9,178.9l7.7-23.6h24.8l7.7,23.6l0,0v0L256,193.4L235.9,178.9L235.9,178.9L235.9,178.9z M263.8,141.1h-15.6l7.8-24L263.8,141.1
	z M288.1,170.1l-4.8-14.9h25.3L288.1,170.1z M228.7,155.3l-4.8,14.9l-20.4-14.9H228.7z M223.5,217l7.8-24l12.6,9.2L223.5,217z
	 M268,202.2l12.6-9.2l7.8,24L268,202.2z"/>
</svg>
